<mxfile host="app.diagrams.net" agent="Mozilla/5.0 (X11; Linux x86_64) AppleWebKit/537.36 (KHTML, like Gecko) Chrome/128.0.0.0 Safari/537.36" version="24.8.4">
  <diagram name="Page-1" id="4d69lEzU8rsxQcZycyfS">
    <mxGraphModel dx="1674" dy="759" grid="0" gridSize="10" guides="1" tooltips="1" connect="1" arrows="1" fold="1" page="1" pageScale="1" pageWidth="827" pageHeight="1169" background="#FFFFFF" math="0" shadow="0">
      <root>
        <mxCell id="0" />
        <mxCell id="1" parent="0" />
        <mxCell id="bxHgxV4HThnJUHMRRNf2-35" value="IMAGE" style="rounded=1;whiteSpace=wrap;html=1;fillColor=#33FF33;" parent="1" vertex="1">
          <mxGeometry x="40" y="200" width="120" height="80" as="geometry" />
        </mxCell>
        <mxCell id="bxHgxV4HThnJUHMRRNf2-41" style="edgeStyle=orthogonalEdgeStyle;rounded=0;orthogonalLoop=1;jettySize=auto;html=1;exitX=1;exitY=0.5;exitDx=0;exitDy=0;entryX=0;entryY=0.5;entryDx=0;entryDy=0;" parent="1" source="bxHgxV4HThnJUHMRRNf2-36" target="bxHgxV4HThnJUHMRRNf2-40" edge="1">
          <mxGeometry relative="1" as="geometry" />
        </mxCell>
        <mxCell id="bxHgxV4HThnJUHMRRNf2-44" value="VIVADO" style="edgeLabel;html=1;align=center;verticalAlign=middle;resizable=0;points=[];" parent="bxHgxV4HThnJUHMRRNf2-41" vertex="1" connectable="0">
          <mxGeometry x="-0.05" relative="1" as="geometry">
            <mxPoint as="offset" />
          </mxGeometry>
        </mxCell>
        <mxCell id="bxHgxV4HThnJUHMRRNf2-36" value="COE file" style="rounded=1;whiteSpace=wrap;html=1;fillColor=#33FF33;" parent="1" vertex="1">
          <mxGeometry x="360" y="200" width="120" height="80" as="geometry" />
        </mxCell>
        <mxCell id="bxHgxV4HThnJUHMRRNf2-37" value="" style="endArrow=classic;html=1;rounded=0;entryX=0;entryY=0.5;entryDx=0;entryDy=0;" parent="1" target="bxHgxV4HThnJUHMRRNf2-36" edge="1">
          <mxGeometry width="50" height="50" relative="1" as="geometry">
            <mxPoint x="160" y="240" as="sourcePoint" />
            <mxPoint x="210" y="190" as="targetPoint" />
          </mxGeometry>
        </mxCell>
        <mxCell id="bxHgxV4HThnJUHMRRNf2-38" value="jpeg-&amp;gt;binary-&amp;gt;coe" style="edgeLabel;html=1;align=center;verticalAlign=middle;resizable=0;points=[];" parent="bxHgxV4HThnJUHMRRNf2-37" vertex="1" connectable="0">
          <mxGeometry x="-0.05" y="1" relative="1" as="geometry">
            <mxPoint as="offset" />
          </mxGeometry>
        </mxCell>
        <mxCell id="bxHgxV4HThnJUHMRRNf2-40" value="Block RAM" style="rounded=1;whiteSpace=wrap;html=1;fillColor=#66B2FF;" parent="1" vertex="1">
          <mxGeometry x="600" y="200" width="120" height="80" as="geometry" />
        </mxCell>
        <mxCell id="bxHgxV4HThnJUHMRRNf2-42" value="AES128" style="rounded=1;whiteSpace=wrap;html=1;strokeColor=#000000;fillColor=#66B2FF;" parent="1" vertex="1">
          <mxGeometry x="600" y="360" width="120" height="80" as="geometry" />
        </mxCell>
        <mxCell id="bxHgxV4HThnJUHMRRNf2-43" value="" style="endArrow=classic;html=1;rounded=0;entryX=0.5;entryY=0;entryDx=0;entryDy=0;" parent="1" edge="1">
          <mxGeometry width="50" height="50" relative="1" as="geometry">
            <mxPoint x="633" y="280" as="sourcePoint" />
            <mxPoint x="633" y="360" as="targetPoint" />
          </mxGeometry>
        </mxCell>
        <mxCell id="bxHgxV4HThnJUHMRRNf2-45" value="" style="endArrow=classic;html=1;rounded=0;" parent="1" edge="1">
          <mxGeometry width="50" height="50" relative="1" as="geometry">
            <mxPoint x="660" y="440" as="sourcePoint" />
            <mxPoint x="660" y="520" as="targetPoint" />
          </mxGeometry>
        </mxCell>
        <mxCell id="bxHgxV4HThnJUHMRRNf2-47" value="ILA" style="edgeLabel;html=1;align=center;verticalAlign=middle;resizable=0;points=[];" parent="bxHgxV4HThnJUHMRRNf2-45" vertex="1" connectable="0">
          <mxGeometry x="-0.075" relative="1" as="geometry">
            <mxPoint as="offset" />
          </mxGeometry>
        </mxCell>
        <mxCell id="bxHgxV4HThnJUHMRRNf2-46" value="ENCRYPTED DATA IN CSV" style="rounded=1;whiteSpace=wrap;html=1;fillColor=#99FFFF;" parent="1" vertex="1">
          <mxGeometry x="600" y="520" width="120" height="80" as="geometry" />
        </mxCell>
        <mxCell id="bxHgxV4HThnJUHMRRNf2-48" value="DECRYPTED IMAGE" style="rounded=1;whiteSpace=wrap;html=1;fillColor=#99FFFF;" parent="1" vertex="1">
          <mxGeometry x="50" y="520" width="120" height="80" as="geometry" />
        </mxCell>
        <mxCell id="bxHgxV4HThnJUHMRRNf2-49" value="" style="endArrow=classic;html=1;rounded=0;entryX=1;entryY=0.5;entryDx=0;entryDy=0;" parent="1" target="bxHgxV4HThnJUHMRRNf2-48" edge="1">
          <mxGeometry width="50" height="50" relative="1" as="geometry">
            <mxPoint x="600" y="560" as="sourcePoint" />
            <mxPoint x="650" y="510" as="targetPoint" />
          </mxGeometry>
        </mxCell>
        <mxCell id="bxHgxV4HThnJUHMRRNf2-50" value="PYTHON" style="edgeLabel;html=1;align=center;verticalAlign=middle;resizable=0;points=[];" parent="bxHgxV4HThnJUHMRRNf2-49" vertex="1" connectable="0">
          <mxGeometry x="-0.0667" y="-2" relative="1" as="geometry">
            <mxPoint as="offset" />
          </mxGeometry>
        </mxCell>
        <mxCell id="UvpwV5aJKrEp0ZPIKY2A-1" style="edgeStyle=orthogonalEdgeStyle;rounded=0;orthogonalLoop=1;jettySize=auto;html=1;exitX=1;exitY=0.5;exitDx=0;exitDy=0;entryX=0;entryY=0.5;entryDx=0;entryDy=0;" edge="1" parent="1">
          <mxGeometry relative="1" as="geometry">
            <mxPoint x="482" y="259" as="sourcePoint" />
            <mxPoint x="602" y="259" as="targetPoint" />
          </mxGeometry>
        </mxCell>
        <mxCell id="UvpwV5aJKrEp0ZPIKY2A-2" value="VIVADO" style="edgeLabel;html=1;align=center;verticalAlign=middle;resizable=0;points=[];" vertex="1" connectable="0" parent="UvpwV5aJKrEp0ZPIKY2A-1">
          <mxGeometry x="-0.05" relative="1" as="geometry">
            <mxPoint as="offset" />
          </mxGeometry>
        </mxCell>
        <mxCell id="UvpwV5aJKrEp0ZPIKY2A-3" style="edgeStyle=orthogonalEdgeStyle;rounded=0;orthogonalLoop=1;jettySize=auto;html=1;exitX=1;exitY=0.5;exitDx=0;exitDy=0;entryX=0;entryY=0.5;entryDx=0;entryDy=0;" edge="1" parent="1">
          <mxGeometry relative="1" as="geometry">
            <mxPoint x="480" y="222" as="sourcePoint" />
            <mxPoint x="600" y="222" as="targetPoint" />
          </mxGeometry>
        </mxCell>
        <mxCell id="UvpwV5aJKrEp0ZPIKY2A-4" value="VIVADO" style="edgeLabel;html=1;align=center;verticalAlign=middle;resizable=0;points=[];" vertex="1" connectable="0" parent="UvpwV5aJKrEp0ZPIKY2A-3">
          <mxGeometry x="-0.05" relative="1" as="geometry">
            <mxPoint as="offset" />
          </mxGeometry>
        </mxCell>
        <mxCell id="UvpwV5aJKrEp0ZPIKY2A-6" value="" style="endArrow=classic;html=1;rounded=0;entryX=0.5;entryY=0;entryDx=0;entryDy=0;" edge="1" parent="1">
          <mxGeometry width="50" height="50" relative="1" as="geometry">
            <mxPoint x="690" y="280" as="sourcePoint" />
            <mxPoint x="690" y="360" as="targetPoint" />
          </mxGeometry>
        </mxCell>
        <mxCell id="UvpwV5aJKrEp0ZPIKY2A-7" value="KEY EXPANDER" style="rounded=1;whiteSpace=wrap;html=1;strokeColor=#000000;fillColor=#66B2FF;" vertex="1" parent="1">
          <mxGeometry x="360" y="360" width="120" height="80" as="geometry" />
        </mxCell>
        <mxCell id="UvpwV5aJKrEp0ZPIKY2A-8" value="" style="endArrow=classic;html=1;rounded=0;entryX=0;entryY=0.5;entryDx=0;entryDy=0;" edge="1" parent="1" target="bxHgxV4HThnJUHMRRNf2-42">
          <mxGeometry width="50" height="50" relative="1" as="geometry">
            <mxPoint x="480" y="400" as="sourcePoint" />
            <mxPoint x="530" y="350" as="targetPoint" />
          </mxGeometry>
        </mxCell>
      </root>
    </mxGraphModel>
  </diagram>
</mxfile>
